<svg xmlns="http://www.w3.org/2000/svg" width="23" height="16" viewBox="0 0 23 16">
    <g fill="none" fill-rule="evenodd">
        <path fill="#000" fill-rule="nonzero" d="M208.492 401.092c-.205.002-.4.085-.543.231-.142.146-.22.343-.216.546v2.03c-.004.274.142.53.38.668.24.138.535.138.773 0 .24-.138.385-.394.38-.668v-2.03c.005-.206-.075-.405-.221-.551-.146-.147-.345-.228-.553-.226zm-5.646 1.015c-.27.01-.516.16-.645.396-.13.236-.124.523.014.754l1.022 1.775c.121.262.381.434.671.443.29.01.56-.144.7-.397.138-.253.12-.562-.045-.799l-1.022-1.776c-.138-.251-.407-.404-.695-.396zm11.284 0c-.28 0-.537.153-.67.396l-1.023 1.776c-.166.237-.183.546-.044.799.138.253.409.407.699.397.29-.01.55-.18.67-.443l1.023-1.775c.14-.235.143-.526.008-.764-.135-.237-.388-.385-.663-.386zm-5.63 3.06c-4.403 0-8.393 2.056-11.308 5.336-.256.288-.256.72 0 1.007 2.915 3.279 6.907 5.328 11.308 5.328s8.393-2.05 11.308-5.328c.256-.288.256-.72 0-1.007-2.915-3.28-6.905-5.336-11.308-5.336zm0 1.776c2.267 0 4.089 1.817 4.089 4.068 0 2.25-1.822 4.051-4.089 4.051-2.267 0-4.08-1.8-4.08-4.051 0-2.251 1.813-4.068 4.08-4.068zm4.344.531c1.978.73 3.78 1.941 5.32 3.529-1.54 1.585-3.342 2.805-5.32 3.536.795-.963 1.27-2.192 1.27-3.528 0-1.337-.476-2.572-1.27-3.537zm-8.696.008c-.792.964-1.27 2.194-1.27 3.529 0 1.336.475 2.565 1.27 3.528-1.976-.731-3.774-1.952-5.311-3.536 1.537-1.585 3.336-2.79 5.31-3.52zm4.352 1.237c-1.261 0-2.3 1.032-2.3 2.284 0 1.252 1.039 2.283 2.3 2.283s2.3-1.031 2.3-2.283-1.039-2.284-2.3-2.284zm0 1.522c.433 0 .767.332.767.762 0 .429-.334.76-.767.76s-.767-.331-.767-.76c0-.43.334-.762.767-.762z" transform="translate(-197 -401)"/>
    </g>
</svg>