<svg id="Layer_1" data-name="Layer 1" xmlns="http://www.w3.org/2000/svg" viewBox="0 0 337.56 132"><defs><style>.cls-1{fill:#ffffff;stroke:#ffffff;stroke-width:2px;fill-rule:evenodd;}</style></defs><title>frame-mobile</title><g id="R5-States"><path id="Frame" class="cls-1" d="M2.89,32.22a5.13,5.13,0,0,0,0-1c0-1.42,0-2.85,0-4.28,0-1.27,0-2.54,0-3.81,0-1.46.16-2.92.19-4.38,0-2.41,0-4.83,0-7.24,0-.51,0-1,0-1.53,0-.76-.1-1.52-.13-2.28S3,6.28,3,5.55c0-1.2,0-2.41,0-3.61A2.33,2.33,0,0,1,3,1.48a3.69,3.69,0,0,1,1.61-.23c2.66-.07,5.31,0,8,0,2.35,0,4.71-.07,7.07-.09s4.91,0,7.37,0c1.25,0,2.51.07,3.75.07,2.36,0,4.72.09,7.07,0,.6,0,1.2-.07,1.8-.07,1.31,0,2.61,0,3.91,0,2.87,0,5.73,0,8.59,0,3.46,0,6.92-.1,10.38-.14C65.59,1.06,68.64,1,71.7,1c2.81,0,5.62.06,8.42.07,3.92,0,7.83,0,11.74,0,3.32,0,6.63,0,9.94.06l6.62,0c.66,0,1.31.05,2,.06s1.2,0,1.8,0c.25,0,.5,0,.75,0,3.81,0,7.62-.12,11.43,0,1.75,0,3.51,0,5.27,0l8.28,0h11c1.1,0,2.2.06,3.31.09H153c1.1,0,2.2,0,3.3,0,3,0,5.92.07,8.88.08.85,0,1.7-.08,2.55-.09,1.2,0,2.41.05,3.61,0s2.71,0,4.06-.06,2.5,0,3.76,0,2.51,0,3.76,0c3.05.14,6.11.13,9.17.14,2.26,0,4.53,0,6.78.07,3.86.15,7.72.1,11.58.09,3.47,0,6.93.06,10.39.06s6.63,0,9.94,0c2,0,3.92-.12,5.87-.05,1.76.05,3.5,0,5.26,0,1.5,0,3,0,4.5,0l10.39-.08c2.55,0,5.11-.05,7.67,0,.7,0,1.4-.05,2.1-.07.45,0,.9,0,1.35,0,2.45.1,4.91.09,7.36.1,3.56,0,7.13,0,10.69,0,.9,0,1.8-.08,2.7-.09,2.31,0,4.61,0,6.92,0l11.74,0,8.28,0c1.06,0,2.11,0,3.16,0,3.61,0,7.23,0,10.84.07,1.65,0,3.3-.06,4.95,0l.94,0a4.71,4.71,0,0,1,.45,1.89c0,1.3,0,2.61,0,3.91,0,1,.05,2.09,0,3.14,0,1.24-.05,2.48-.07,3.72,0,1,0,2-.07,2.95,0,.57-.11,1.14-.12,1.71,0,.86,0,1.71,0,2.57,0,1.93.1,3.87.13,5.81s.05,3.68,0,5.52c0,1.18-.19,2.35-.25,3.52-.05,1,0,2-.06,3-.05,1.33,0,2.66-.14,4a10.78,10.78,0,0,0,.07,4.08,2.75,2.75,0,0,1,.06.86c0,1.71,0,3.42-.06,5.14,0,.57-.11,1.14-.12,1.71s.05,1,.08,1.43c0,.22,0,.44,0,.66-.07,1.72-.13,3.43-.2,5.14,0,.54-.08,1.08-.12,1.62-.06.86-.16,1.71-.16,2.57,0,1.81.07,3.62.09,5.43,0,.89-.06,1.78-.06,2.67,0,1.52,0,3,0,4.57,0,2.73,0,5.46,0,8.19,0,1.65.07,3.3.1,5,0,.25,0,.5,0,.76,0,.47-.07.95-.08,1.42,0,1.84,0,3.69-.07,5.53a16.83,16.83,0,0,0-.14,2.56c.08.7.14,1.4.18,2.09a6.42,6.42,0,0,1,0,1.24,29.67,29.67,0,0,0,0,4c0,1.17-.11,2.34-.15,3.52,0,.54,0,1.08,0,1.62,0,1.33,0,2.66,0,4,0,.7.1,1.4.16,2.09,0,.1,0,.19,0,.29,0,1.2-.09,2.4,0,3.61a33.65,33.65,0,0,1,0,3.62c0,.28,0,.57,0,.85,0,.48,0,.95,0,1.44a5.49,5.49,0,0,1-2.05.27c-1.45,0-2.9,0-4.35,0-.9,0-1.8.07-2.7.09h-3.32l-2.4,0-2,0c-.75,0-1.5,0-2.25,0l-14,0c-2.46,0-4.92-.06-7.38-.08-1.9,0-3.81,0-5.71,0-2.9,0-5.81-.11-8.71-.16-2,0-3.91-.11-5.87-.11-1.35,0-2.7.1-4.05.1-2.76,0-5.51-.08-8.27-.09-1.95,0-3.91.07-5.86.08-1.26,0-2.51,0-3.76-.05-.25,0-.51,0-.75,0-2.11.12-4.21-.06-6.31,0-1.66,0-3.31-.08-5-.11-.45,0-.9,0-1.34,0a4.8,4.8,0,0,1-.75,0,35.92,35.92,0,0,0-4.64,0c-1.56,0-3.11,0-4.67,0s-3.1-.09-4.64-.08c-1.91,0-3.82.06-5.72.08q-3.69,0-7.38,0c-2.21,0-4.41,0-6.62,0-2.51,0-5,0-7.52-.08a40,40,0,0,0-5.25.05c-.35,0-.7,0-1.06,0-1.7,0-3.4,0-5.1,0a6.26,6.26,0,0,1-.75,0c-2.2-.12-4.4-.08-6.6-.05-.7,0-1.4-.09-2.1-.08-1.5,0-3,.08-4.51.1s-2.9,0-4.36,0c-.15,0-.3,0-.45,0-3.76.15-7.52,0-11.29,0-1.29,0-2.59-.06-3.89-.08-.9,0-1.81,0-2.71,0-.3,0-.6.05-.9,0-1.5-.14-3-.05-4.5,0-1.15,0-2.3,0-3.45,0l-4.52,0c-1.1,0-2.2,0-3.31,0h-1.8l-3.16,0-3.61,0h-3.31c-1.1,0-2.2,0-3.3.1a17.38,17.38,0,0,1-2.7,0c-1.61-.13-3.21-.14-4.81-.14-2.46,0-4.92.05-7.38.07-2.65,0-5.3.05-8,.06-.75,0-1.5,0-2.25-.09-.3,0-.6,0-.9,0-2.36,0-4.72,0-7.07,0-1.4,0-2.81,0-4.21-.07h-.75l-6.91,0c-.3,0-.6,0-.9,0-.65,0-1.3,0-2,0-1.15,0-2.29.07-3.45,0s-2.5-.07-3.76-.07c-2.1,0-4.21,0-6.32,0-2,0-3.91-.09-5.86-.13-.75,0-1.5,0-2.25,0-.95,0-1.9.07-2.85.07-2.55,0-5.11,0-7.67,0-2.8-.06-5.61,0-8.41,0-1.7,0-3.41,0-5.11-.12a37.14,37.14,0,0,0-4.35,0c-.4,0-.8,0-1.2,0a27.93,27.93,0,0,0-3.88,0,30.61,30.61,0,0,1-3.46.06l-7.67,0c-.29,0-.58,0-1.06-.05.07-1.5,0-2.89.18-4.29a4.84,4.84,0,0,0,0-.85c0-.41-.08-.82-.12-1.24a15.2,15.2,0,0,1,.13-3.23,12.16,12.16,0,0,0,0-1.81c0-1.33-.14-2.66-.11-4,0-1.52.16-3,.26-4.56.06-.79.15-1.58.19-2.38a14.59,14.59,0,0,0-.12-3.23,12.16,12.16,0,0,1,0-1.91c0-1.55-.05-3.11-.09-4.66a5.1,5.1,0,0,0-.08-.67A7.48,7.48,0,0,1,2,96,37.23,37.23,0,0,1,2.21,91,19.4,19.4,0,0,0,2.3,88c0-2,0-3.94.05-5.91,0-.4.06-.81.09-1.22s.11-1.07.13-1.61c.05-1.49.09-3,.1-4.47,0-1.21-.09-2.41,0-3.62.1-1.61-.06-3.23.11-4.84a12.94,12.94,0,0,0,0-1.52c0-1.21,0-2.41,0-3.62,0-.63,0-1.27,0-1.9,0-1.37.07-2.73,0-4.1C2.6,54.1,2.92,53,2.82,52c-.07-.67-.14-1.33-.15-2a6.81,6.81,0,0,0,.11-1.41,5.52,5.52,0,0,1-.14-1.33c0-.88.1-1.76.15-2.65a17.61,17.61,0,0,0-.08-3.7,11,11,0,0,1-.06-1.81,35.55,35.55,0,0,1,.1-3.72c.12-1,0-2.08.14-3.12M3,1.66c.07.57.15,1.11.21,1.64a9,9,0,0,1,.12,1c.05,2.94,0,5.87.23,8.8a2.29,2.29,0,0,1,0,.37c0,1-.07,2-.1,3,0,1.7,0,3.4-.12,5.1a22.4,22.4,0,0,0,0,4.63,2.71,2.71,0,0,1,0,.57C3.21,27.9,3.09,29,3.08,30s.14,2.13,0,3.2c-.07.65,0,1.32,0,2,0,.41,0,.82,0,1.23,0,2.52.08,5,0,7.57,0,1.63-.26,6.91-.19,7.72,0,.38,0,.76,0,1.13a17.69,17.69,0,0,1,0,3.78A4.54,4.54,0,0,0,3,58.72a3.26,3.26,0,0,1,.08.94c0,.41,0,.82,0,1.23A6.15,6.15,0,0,1,2.91,62c-.13.51-.17,8.93-.12,10.1a22.54,22.54,0,0,0,.14,4.34,1.51,1.51,0,0,1-.07.66c-.13.72-.18,4.45-.16,5.36a29.45,29.45,0,0,1-.21,5.86,2.41,2.41,0,0,0,0,.38c0,1.61-.08,3.22-.08,4.82,0,1,0,2.08.09,3.12a8.38,8.38,0,0,1,.07,1.23c-.06.81.1,1.63,0,2.45a.67.67,0,0,0,0,.28,40.16,40.16,0,0,1,.28,5.48,39.82,39.82,0,0,1-.18,4.63c0,.6-.16,1.19-.17,1.79,0,1.23,0,2.46,0,3.69a52.71,52.71,0,0,1,0,5.76v.1c0,1.61,0,3.21,0,4.82A6.2,6.2,0,0,1,2,130a2.86,2.86,0,0,0,.45.08L19.57,130h4.05l7.21,0h4.5c.4,0,.8,0,1.2.05s1,0,1.49,0,.9,0,1.35,0c2.59,0,5.19.11,7.79.13,3,0,5.9-.13,8.85,0,.35,0,.7,0,1-.06l.74,0,2,0c1.35,0,2.71-.07,4,0,1.15.08,2.29.09,3.44.09H80.45c.3,0,.6.05.9.06.49,0,1,.07,1.48.06,1.45,0,2.9-.07,4.35,0l6.58.14c4,0,14.59-.13,15.59-.11l3.45.06,2.55,0a57.37,57.37,0,0,0,6.29-.11c.54,0,1.1,0,1.65,0l3.46,0h.74l4.8,0h6.3c.85,0,1.7,0,2.55,0,1,0,2,0,3,0a39.89,39.89,0,0,1,4.64,0,3.34,3.34,0,0,0,.45,0h5.11l12.76,0a14.93,14.93,0,0,1,1.5,0,28.68,28.68,0,0,0,4,.05,35.33,35.33,0,0,1,5.54,0,4.64,4.64,0,0,0,.74,0c1.65,0,3.31-.13,5-.09,2.86.05,5.71,0,8.56,0l2.25,0,8.72,0c1.5,0,3,0,4.5.06,1.76.1,3.5,0,5.25,0,2.9,0,5.8-.07,8.7-.11h.3c1.6,0,3.21.13,4.8.08,1.85-.06,3.7-.06,5.55-.06,3.36,0,6.71,0,10.07,0l1.35,0c2.3,0,4.6.12,6.9.13h19.84c1.8,0,3.61-.08,5.41,0,3.1.08,6.2.06,9.3.18,3.35.12,6.71,0,10.07.06,2.05,0,4.11,0,6.16.06,1.7,0,3.39.07,5.09,0,2.25,0,4.5-.19,6.75,0a6.26,6.26,0,0,0,.75,0,35.93,35.93,0,0,1,4.64,0,6,6,0,0,0,.6,0c1.2,0,2.4,0,3.6,0,1.4,0,2.8-.05,4.2-.07,1.7,0,3.4,0,5.1,0,.9,0,1.8.07,2.7.08.65,0,1-.22,1.07-.62a4,4,0,0,0-.05-.85c-.06-.53-.17-1.07-.18-1.6,0-2.18,0-4.35-.05-6.53,0-.79-.13-5.64-.05-7.15.11-2,.07-4,.09-6,0-1.64,0-3.28,0-4.92,0-1.32,0-2.64,0-4,0-.91.06-1.83.08-2.74,0-.73,0-1.45,0-2.18s.36-1.5.06-2.25a18.08,18.08,0,0,0,.09-3.12,31.05,31.05,0,0,0,0-3.2,21.39,21.39,0,0,0-.05-3.3,2.43,2.43,0,0,1,0-.66,27.72,27.72,0,0,0,0-5.76,5.09,5.09,0,0,1,.07-1.23c0-.19.09-.38.09-.56,0-1.52,0-3-.06-4.54s-.09-2.9-.13-4.35a2.09,2.09,0,0,1,.05-.56c.41-2,.16-4.09.38-6.14a44.47,44.47,0,0,0,.08-4.62l.06-9.08c0-1.51-.05-3,0-4.53.06-1,0-2.08,0-3.12,0-.56.07-1.13.11-1.7,0-.31.08-.62.09-.94,0-1.17,0-2.33,0-3.5,0-2,0-4,0-6,0-1.2,0-2.4,0-3.6s-.07-2.44,0-3.67a33.83,33.83,0,0,0,.12-4.72,2.58,2.58,0,0,1,0-.38c0-.41.11-.81.11-1.22,0-1.51,0-3,0-4.54,0-.82-.07-1.64-.06-2.45a7.65,7.65,0,0,0-.1-2.08,3.85,3.85,0,0,1,0-1.22c0-.33-.2-.48-.68-.44a66.46,66.46,0,0,1-8.7.06,8.81,8.81,0,0,0-.89,0c-1.75.08-6.79,0-7.19,0-3.5,0-7,0-10.51.07-2.9.09-5.8,0-8.7,0-.35,0-.7,0-1.05,0s-.7,0-1.05,0c-1.55,0-3.1.07-4.65.08q-6.09.06-12.17.07c-2.4,0-4.8.15-7.19,0-.15,0-.3,0-.45,0h-1.79c-.45,0-.9,0-1.35,0h-5c-2.45,0-4.91,0-7.36,0s-5,.14-7.51.13c-4.65,0-9.3.11-14,0-1.5,0-3,.07-4.5.09-2.66,0-5.31,0-8,0-3,0-6.11,0-9.16,0l-5.56-.06c-2.1,0-4.2,0-6.3,0-1.65,0-3.3-.07-5-.11-1.5,0-3-.08-4.51-.1-1,0-2,0-3,0-.35,0-.71,0-1,0-1.2.1-2.4,0-3.6,0q-9.54,0-19.09,0c-1.5,0-3,.07-4.5.06-3,0-5.91-.05-8.86-.06-5.61,0-11.22-.09-16.83-.05-4.75,0-9.51,0-14.27,0l-13.22,0q-5.27,0-10.52,0c-1.71,0-3.41-.09-5.11-.11-2.25,0-4.5,0-6.76,0C82.26,1,77.6,1,73,1c-2.51,0-5,0-7.51.06-2.35,0-4.7.09-7,.12l-4.81.06c-2.25,0-4.5.05-6.75.05-1.5,0-3-.06-4.51-.08-1.1,0-2.21,0-3.3,0a28,28,0,0,1-3.3.05c-1.35-.07-2.7-.06-4-.06l-11.42,0c-1.05,0-2.1,0-3.15,0-3.56,0-7.11,0-10.67,0a21.67,21.67,0,0,0-2.68.19A4.46,4.46,0,0,0,3,1.66" transform="translate(-0.44 0)"/></g></svg>