<svg version="1.1" id="Layer_1" xmlns="http://www.w3.org/2000/svg" xmlns:xlink="http://www.w3.org/1999/xlink" x="0px" y="0px"
	 viewBox="0 0 1217.3 45.2" style="enable-background:new 0 0 1217.3 45.2;" xml:space="preserve">
<style>.st0 {fill:#f8f138;fill-rule:evenodd;}</style>
<path class="st0" d="M1217.3,691.6c-113,0-170.8,31.8-334.9,31.8c-110.5,0-157.4-32.6-242.8-31.8s-151.5,31.8-345.8,31.8
	c-124.7,0-169.1-31.8-293.9-31.8v-13.3c140.7-0.8,151.6,25.3,282.1,30.1c173.6,6.4,236.9-30.1,357.2-30.1
	c102.7-0.8,151,33.8,275.8,30.3c124.7-3.5,196.7-30.3,302.2-30.3V691.6z"/>
<path class="st0" d="M1217.3,13.4c-113,0-170.8,31.8-334.9,31.8c-110.5,0-157.4-32.6-242.8-31.8S488.1,45.2,293.9,45.2
	C169.1,45.2,124.7,13.4,0,13.4V0c140.7-0.8,151.6,25.3,282.1,30.1C455.8,36.6,519.1,0,639.3,0c102.7-0.8,151,33.8,275.8,30.3
	S1111.8,0,1217.3,0V13.4z"/>
<path class="st0" d="M0,691.6c-113,0-170.8,31.8-334.9,31.8c-110.5,0-157.4-32.6-242.8-31.8s-151.5,31.8-345.8,31.8
	c-124.7,0-169.1-31.8-293.9-31.8v-13.3c140.7-0.8,151.6,25.3,282.1,30.1c173.6,6.4,236.9-30.1,357.2-30.1
	c102.7-0.8,151,33.8,275.8,30.3C-177.5,705-105.5,678.2,0,678.2V691.6z"/>
<path class="st0" d="M2434.6,691.6c-113,0-170.8,31.8-334.9,31.8c-110.5,0-157.4-32.6-242.8-31.8s-151.5,31.8-345.8,31.8
	c-124.7,0-169.1-31.8-293.9-31.8v-13.3c140.7-0.8,151.6,25.3,282.1,30.1c173.6,6.4,236.9-30.1,357.2-30.1
	c102.7-0.8,151,33.8,275.8,30.3c124.7-3.5,196.7-30.3,302.2-30.3V691.6z"/>
</svg>
