<svg xmlns="http://www.w3.org/2000/svg" viewBox="0 0 713.9 323.4" preserveAspectRatio="none">
  <path fill="#FDB813" d="M322.3 10c-5.1.9-19.4 2.8-26.8 3.3-5.9.4-16.9 1.1-22.8 2.7-.4.1-24 4.5-26.4 5.1-1 .2-15.4 5.6-22.3 6.9a264 264 0 00-23.5 6.8c-3.3 1.2-6.5 2.8-9.9 4-4.6 1.7-9.4 3.1-13.9 4.9-5.8 2.3-38.9 15.5-48.2 19.9-8.9 3.7-16.1 7.7-23.2 10.8-4.6 2-20.6 12.7-22.2 13.4-2 .8-19.2 12.5-21.5 13.8-2.8 1.6-13.6 8.8-20.2 13.9-7.2 5.5-13 12.2-17.6 18a128.7 128.7 0 00-17.3 30.7A64.3 64.3 0 000 187.7c0 9.9.3 19.9 2.5 30 2 9.5 6.3 18.3 11 27a97.2 97.2 0 0023.1 27.6c7 5.9 14 11.9 22.4 16.6 5.6 3.1 31.8 16.1 40.7 17.9 11.8 2.5 22.8 6.7 34.6 9.2 9.4 2.1 44.4 6.4 52.1 7.2 3.3.4 22-.5 28-.4 7 .1 78.8.9 84.3.6l27-1.8c9-.6 41.9-3.2 49.2-5.2 6.5-1.8 14.1-1.5 21.1-2.4 10.4-1.2 47.2-8.3 55.3-10 7.2-1.6 35.3-7.2 41.9-8.9 11.8-2.9 42.8-11.2 46.6-12.5 10.5-3.5 40.6-13 44.9-14.6 9.5-3.7 55.1-22.9 68.1-29 12-5.5 22.9-13 32.3-22.3 4.7-4.7 10.4-9 13.8-14.1a104 104 0 0011.5-22.2 41.7 41.7 0 002.3-25.6c-1.2-4.3-.9-8.9-2.6-13.1-2-4.9-5.2-9.5-8.1-14.2-.8-1.3-2.3-2.3-3.3-3.5-3.2-3.8-5.5-8.2-9.6-11.3-9-6.8-57.9-27.8-64.2-29.5l-1.3-.5c-6.1-2.2-12-5.1-18.4-6.3-11.4-2.4-46-10.4-52.5-11-5.7-.5-11.5-.9-17.2-1.6-3-.5-6-1.1-8.9-1.8-2.7 5.3-15 3.6-17.6 2.8-3.8-1.1-9.1-.5-10.6-4.7-.2-.7-3.1-1-4.9-1.1-5.8-.4-11.6-.6-18-.9l-2.7 6c-1.7-2.4-7-3.1-8.4-.9l-4.4-5c-4-.9-4.9 2-6.5 4.6l-1-1.7-5.6.4c.7-.9 1.4-1.8 1.9-2.8.3-.7-12.8 3.2-13.7 3.3-2.4.2-5.1-.6-8.3-1.1 2.7-1.3-9-2.8-10.5.7-1.1-.2-2.2-.3-3.4-.3-10.4.4-20.7 1.1-31 1.4-10 .3-34.9 1.5-37.1 2.3-3.4 1.2-19.2 4.4-22.1 7.8-.8.8-2.3 1.3-3.4 2-.9.8-1.7 1.6-2.4 2.5 6.8 2.6 15.6 1.1 19.1 7.1 7.6.9 34.4 2.3 40.1 1.9 7.3-.5 26.3.7 28.3.8 7 .2 55.7.5 57.7.6l17.2 1.4 21 1.3 3.4.4c7 .5 40.4 4.5 49.8 6.9 8.7 2.2 18.5.8 26.5 5.2 3.6 2 8.6 2.5 13 3.8 10.3 3.1 44 13.5 49.6 16.4a95 95 0 0125.2 16.9c3.6 3.7 7.6 7.3 10.2 11.4s2.9 8.4 3.2 13c.3 7.2-2 13.4-7.7 19.1-1.9 1.9-14.9 18.1-23.1 22.5-3.6 1.9-6.8 4.3-10.1 6.4-4.1 2.7-7.9 5.7-12.4 8-5 2.6-10.7 4.4-16 6.6l-32.8 13.4-9.6 4.3.6 1.2c1.6 0 3.5.4 4.9-.1 4.5-1.5 8.9-3.2 13.3-4.8a311 311 0 018.8-3.2l.6-.2.6-.2 3-1.1 5.9-2.1 2.7-1.6a24 24 0 015.8-2.2c1.2-.3 2.6.1 4 .2l-.3 1.4-8.3 3.2h-.1l-12.9 5.4a49 49 0 01-5.2 2.4c-7.2 2.9-14.4 5.9-21.9 8.4-9.8 3.2-42 12.1-44.3 12.7-2-.1-5.5-.7-6.5-.7-8.9 0-24.6 6.1-24.6 6.1s-5.1.6-5.7 2.7l-7.7 1.7-1 .2c-.6-.7-10.3.1-6.8.1-2 1.1-4.3 3.3-6.1 3.1-6.5-.6-11.2 3-17.1 3.4h-2.9c.5-.7.7-1.7 1.5-2.2 1.9-1.1 4-2 6.8-3.3-9.7-1.8-21.8 2.2-23.3 4.1s1.4 2.3 2.3 3.7l-22.9 2.2c-.4-1.3 2.2-1.6-1-3.2s-11.2 2.2-11.4 7.3h-13.9c-.6 0-1.5.3-1.9 0-6.6-4.4-36.3.7-44 1.2a1413.6 1413.6 0 01-58.4 2.4c-5.6.1-11.3-.6-16.7.1-10.9 1.3-40.4-1.1-44.3-.9-8.7.6-37-.4-41.2-.9a516.2 516.2 0 01-33.4-5c-12.4-2.5-24.5-5.7-36.7-8.6-.7-.2-10.4-5.3-14.8-7.3-3.3-1.6-7-2.8-10-4.6s-4.8-5.1-8.1-6.4c-10.7-4.2-32.9-26-36.2-30.4a61.6 61.6 0 01-6.2-10.5 82 82 0 01-1-34.3 91.8 91.8 0 0114-24.6A126.8 126.8 0 0177.4 131c6.3-4.4 13-8.5 19.7-12.6S110 110 117 106.5c14.1-7.2 28.5-14 43.1-20.7 10.4-4.7 21.2-9 32-13.2 17.5-6.7 34.8-13.9 53-19.5 22.7-8.5 61.9-10.8 73.1-13.2 8-.7 24.2-.9 31.6-2 3.7-.5 36.7-2.3 45.6-3.3 2.4-.3 5-.1 7.4-.3l21.6-2.2c5.1-.4 28.7 2.7 35.3 2.9 7.7.1 15.5-3 23.2-2.9a506 506 0 0134 2.1c10.6 1.6 21.1 3.6 31.3 6.2 6.8 1.8 13.1 4.7 19.1 7.7 3.9 1.9 8.2 4.8 13 4.3 4.6-.5 17.3-12.4 15.7-9.6 3.2-5.4.5-10.5-1.2-15.5-.4-1.2-2.7-2.2-4.2-3.1s-4.6-1.5-5.2-2.7c-1.9-4.4-55.8-17.3-61.2-17.8L493 .7c-2.5-.2-5.1.1-7.6 0a746 746 0 00-41-.4c-6.6.3-13.2 1-19.8 1.6m49.5 272.5h.3-.3z"/>
</svg>
