<?xml version="1.0" encoding="UTF-8"?>
<svg width="159px" height="81px" viewBox="0 0 159 81" version="1.1" xmlns="http://www.w3.org/2000/svg" xmlns:xlink="http://www.w3.org/1999/xlink">
    <title>Group</title>
    <g id="Page-1" stroke="none" stroke-width="1" fill="none" fill-rule="evenodd">
        <g id="Group" fill="#C8CBCE">
            <g id="heart" transform="translate(125.000000, 0.000000)">
                <path d="M18.2264587,7.37863574 C19.2466838,5.47586445 20.5219652,3.44624174 22.179831,1.92402471 C31.1068009,-4.29169482 40.5438834,5.34901303 27.7910693,19.4295206 C24.9854502,22.7276575 22.179831,26.0257943 19.5017401,29.3239312 C17.8438743,31.2267025 16.8236491,31.6072568 14.7831989,29.9581883 C9.93712951,25.7720915 1.01015963,19.556372 0.117462643,13.213801 C-0.647706203,8.77400135 2.41296918,4.08049884 6.74892598,2.68513323 C10.9573546,1.28976762 16.1860084,3.44624174 18.2264587,7.37863574 Z M19.7567964,11.9452868 C18.8640994,15.623978 15.9309521,10.0425155 15.6758959,9.28140702 C14.4006144,6.36382438 10.9573546,4.71475593 7.89667925,5.47586445 C-6.38647255,9.1545556 15.2933114,28.943377 17.7163461,26.1526458 C20.6494934,22.600806 28.42871,14.4823152 30.2141039,10.6767726 C32.3820823,5.47586445 28.1736537,0.655510522 23.965225,4.58790452 C21.9247748,6.61752722 20.3944371,9.1545556 19.7567964,11.9452868 Z" id="Shape"></path>
            </g>
            <g id="heart-copy" transform="translate(0.000000, 50.000000)">
                <path d="M18.2264587,7.37863574 C19.2466838,5.47586445 20.5219652,3.44624174 22.179831,1.92402471 C31.1068009,-4.29169482 40.5438834,5.34901303 27.7910693,19.4295206 C24.9854502,22.7276575 22.179831,26.0257943 19.5017401,29.3239312 C17.8438743,31.2267025 16.8236491,31.6072568 14.7831989,29.9581883 C9.93712951,25.7720915 1.01015963,19.556372 0.117462643,13.213801 C-0.647706203,8.77400135 2.41296918,4.08049884 6.74892598,2.68513323 C10.9573546,1.28976762 16.1860084,3.44624174 18.2264587,7.37863574 Z M19.7567964,11.9452868 C18.8640994,15.623978 15.9309521,10.0425155 15.6758959,9.28140702 C14.4006144,6.36382438 10.9573546,4.71475593 7.89667925,5.47586445 C-6.38647255,9.1545556 15.2933114,28.943377 17.7163461,26.1526458 C20.6494934,22.600806 28.42871,14.4823152 30.2141039,10.6767726 C32.3820823,5.47586445 28.1736537,0.655510522 23.965225,4.58790452 C21.9247748,6.61752722 20.3944371,9.1545556 19.7567964,11.9452868 Z" id="Shape"></path>
            </g>
        </g>
    </g>
</svg>