<?xml version="1.0" encoding="utf-8"?>
<!-- Generator: Adobe Illustrator 19.1.0, SVG Export Plug-In . SVG Version: 6.00 Build 0)  -->
<svg version="1.1" id="Layer_1" xmlns="http://www.w3.org/2000/svg" xmlns:xlink="http://www.w3.org/1999/xlink" x="0px" y="0px"
	 viewBox="0 0 190 175" style="enable-background:new 0 0 190 175;" xml:space="preserve">
<style type="text/css">
	.st0{fill:#0E73BB;}
	.st1{display:none;}
	.st2{display:inline;}
	.st3{fill:#0A74BA;}
</style>
<g>
	<g id="Fax_1_">
		<path class="st0" d="M169.1,39.9c-6.6,0-13.2,0-19.8,0c0-5.9,0-11.9,0-17.8c0-3.6-3-6.6-6.6-6.6c-31.9,0-63.7,0-95.6,0
			c-3.6,0-6.6,3-6.6,6.6c0,5.9,0,11.9,0,17.8c-6.6,0-13.2,0-19.8,0c-3.6,0-6.6,3-6.6,6.6c0,21.5,0,43.1,0,64.6c0,3.6,3,6.6,6.6,6.6
			c6.6,0,13.2,0,19.8,0c0,7.8,0,15.6,0,23.3c0,3.8,0,7.6,0,11.4c0,2.2,0.4,3.8,2.1,5.4c0.8,0.7,1.6,1.2,2.7,1.5
			c1,0.3,1.9,0.2,2.9,0.2c15.6,0,31.1,0,46.7,0s31.1,0,46.7,0c1,0,1.9,0,2.9-0.2c1-0.3,1.9-0.8,2.7-1.5c1.7-1.6,2.1-3.2,2.1-5.4
			c0-3.8,0-7.6,0-11.4c0-7.8,0-15.6,0-23.3c6.6,0,13.2,0,19.8,0c3.6,0,6.6-3,6.6-6.6c0-21.5,0-43.1,0-64.6
			C175.7,42.8,172.8,39.9,169.1,39.9z M30.7,63.1c-3.2,0-5.8-2.6-5.8-5.8s2.6-5.8,5.8-5.8s5.8,2.6,5.8,5.8S33.9,63.1,30.7,63.1z
			 M142.8,152.9H47.2v-52.1h95.6V152.9L142.8,152.9z M142.8,39.9c-31.9,0-63.7,0-95.6,0c0-3.7,0-7.5,0-11.2c0-3.6,3-6.6,6.6-6.6
			c27.5,0,54.9,0,82.4,0c3.6,0,6.6,3,6.6,6.6C142.8,32.4,142.8,36.2,142.8,39.9z"/>
	</g>
</g>
<g class="st1">
	<g class="st2">
		<path class="st3" d="M94.8,93l2.3,16.5l29.8,1.4l5.4,0.2c3.2,0.1,5.7,0.3,10.8,0.7l4.6,0.7c1,0.1,1.7,0.9,1.7,1.9v32.2
			c0,0.9-0.6,1.7-1.5,1.9l-49.5,10.6c-2.4,0.5-4.9,0.5-7.3,0l-49-10.3c-0.9-0.2-1.5-0.9-1.5-1.8l-0.8-32.7c0-1,0.7-1.9,1.8-2
			l41.6-3.7c0.7-0.1,1.3-0.5,1.6-1.2L91,92.2C91.9,90.3,94.8,90.9,94.8,93z M39.3,74.4l-13.1,27.9c-0.6,1.4,0.5,2.9,2,2.8l49.1-5
			c0.7-0.1,1.3-0.5,1.6-1.1l15.8-35.6l-53.9,9.9C40.1,73.4,39.6,73.8,39.3,74.4z M94.6,63.4l16.7,36.7c0.3,0.6,0.9,1.1,1.6,1.1
			l49,3.9c1.5,0.1,2.5-1.4,1.9-2.7l-12.8-28c-0.3-0.6-0.8-1-1.4-1.1L94.6,63.4z M80.9,34.4l12.1,21c0.9,1.6,3.3,1.6,4.2,0l12.1-21
			c0.9-1.6-0.2-3.6-2.1-3.6h-6.1V17.9c0-1.3-1.1-2.4-2.4-2.4h-7.3c-1.3,0-2.4,1.1-2.4,2.4v12.9H83C81.1,30.8,79.9,32.8,80.9,34.4z"
			/>
	</g>
</g>
<g class="st1">
	<g class="st2">
		<g>
			<path class="st3" d="M161.6,16.7L24.8,88.4c-5.6,2.9-5.4,7.3,0.5,9.6l17.5,6.9c5.9,2.3,14.8,1.1,19.8-2.9l75.8-59.8
				c5-3.9,5.5-3.3,1.2,1.3l-60,64.2c-4.3,4.6-3.1,10.3,2.9,12.6l2,0.8c5.9,2.3,15.6,6.1,21.4,8.5l19.4,7.9
				c5.9,2.4,10.7,4.4,10.7,4.4c0,0,0,0.1,0.1,0.2c0,0,1.4-5,3.1-11.1l29.5-108.5C170.5,16.4,167.2,13.8,161.6,16.7z"/>
		</g>
		<g>
			<path class="st3" d="M80.3,127.6l-13.4-5.5c-5.9-2.4-8.7,0.4-6.3,6.3c0,0,12.4,30,12.1,31c-0.4,1.1,11.9-17.8,11.9-17.8
				C88.2,136.4,86.2,130,80.3,127.6z"/>
		</g>
	</g>
</g>
</svg>
