<svg xmlns="http://www.w3.org/2000/svg" width="15" height="15" viewBox="0 0 15 15">
    <path fill="#1E99CB" d="M11.604 115.805c-2.088 2.035-5.958 1.933-7.318-.924-1.126-2.366.407-5.552 2.9-6.193.238-.061.213-.367.08-.657 1.445-.383 3.025-.013 4.464.974 2.522 1.73 1.789 4.934-.126 6.8m-9.009-8.008c-.135.17-.045.51.132.815-1.241 1.947-1.385 4.624-.461 6.879 1.775 4.33 7.175 5.836 10.773 2.845 3.193-2.655 3.498-7.185.807-10.277-3.077-3.538-8.21-4.109-11.25-.262" transform="translate(-133 -1585) translate(132 1480)"/>
</svg>
