<?xml version="1.0" encoding="utf-8"?>
<!-- Generator: Adobe Illustrator 19.1.0, SVG Export Plug-In . SVG Version: 6.00 Build 0)  -->
<svg version="1.1" id="Layer_1" xmlns="http://www.w3.org/2000/svg" xmlns:xlink="http://www.w3.org/1999/xlink" x="0px" y="0px"
	 viewBox="0 0 190 175" style="enable-background:new 0 0 190 175;" xml:space="preserve">
<style type="text/css">
	.st0{display:none;}
	.st1{display:inline;}
	.st2{fill:#0E73BB;}
	.st3{fill:#0A74BA;}
</style>
<g class="st0">
	<g id="Fax_1_" class="st1">
		<path class="st2" d="M169.4,39.7c-6.6,0-13.2,0-19.8,0c0-6,0-11.9,0-17.9c0-3.7-3-6.6-6.6-6.6c-32,0-63.9,0-95.9,0
			c-3.7,0-6.6,3-6.6,6.6c0,6,0,11.9,0,17.9c-6.6,0-13.2,0-19.8,0c-3.7,0-6.6,3-6.6,6.6c0,21.6,0,43.2,0,64.8c0,3.7,3,6.6,6.6,6.6
			c6.6,0,13.2,0,19.8,0c0,7.8,0,15.6,0,23.4c0,3.8,0,7.6,0,11.4c0,2.2,0.4,3.8,2.1,5.4c0.8,0.7,1.6,1.2,2.7,1.5
			c1,0.3,1.9,0.2,2.9,0.2c15.6,0,31.2,0,46.9,0s31.2,0,46.9,0c1,0,1.9,0,2.9-0.2c1-0.3,1.9-0.8,2.7-1.5c1.7-1.6,2.1-3.2,2.1-5.4
			c0-3.8,0-7.6,0-11.4c0-7.8,0-15.6,0-23.4c6.6,0,13.2,0,19.8,0c3.7,0,6.6-3,6.6-6.6c0-21.6,0-43.2,0-64.8
			C176,42.7,173,39.7,169.4,39.7z M30.5,63c-3.2,0-5.8-2.6-5.8-5.8s2.6-5.8,5.8-5.8s5.8,2.6,5.8,5.8S33.7,63,30.5,63z M142.9,153.1
			H47.1v-52.2h95.9L142.9,153.1L142.9,153.1z M142.9,39.7c-32,0-63.9,0-95.9,0c0-3.7,0-7.5,0-11.2c0-3.7,3-6.6,6.6-6.6
			c27.6,0,55.1,0,82.7,0c3.7,0,6.6,3,6.6,6.6C142.9,32.2,142.9,36,142.9,39.7z"/>
	</g>
</g>
<g>
	<g>
		<path class="st3" d="M94.7,93.9l2.8,19.3l35,1.7l6.3,0.2c3.8,0.1,6.7,0.4,12.7,0.9l5.4,0.8c1.2,0.1,2,1.1,2,2.3v37.8
			c0,1.1-0.7,2-1.8,2.2L99,171.6c-2.8,0.6-5.7,0.6-8.5,0l-57.6-12.1c-1-0.2-1.8-1.1-1.8-2.2l-1-38.4c0-1.2,0.9-2.2,2.1-2.3l48.9-4.3
			c0.8-0.1,1.6-0.6,1.9-1.4l7.4-17.9C91.3,90.8,94.7,91.4,94.7,93.9z M29.6,72.1l-15.3,32.8c-0.7,1.6,0.5,3.4,2.3,3.2l57.6-5.8
			c0.8-0.1,1.5-0.6,1.9-1.3l18.5-41.8L31.2,70.8C30.5,70.9,29.9,71.4,29.6,72.1z M94.5,59.2l19.6,43.1c0.3,0.8,1.1,1.3,1.9,1.3
			l57.5,4.6c1.7,0.1,3-1.6,2.3-3.2l-15-32.9c-0.3-0.7-0.9-1.2-1.7-1.3L94.5,59.2z M78.4,25.2l14.2,24.7c1.1,1.9,3.8,1.9,4.9,0
			l14.2-24.7c1.1-1.9-0.3-4.3-2.5-4.3h-7.1V5.8c0-1.6-1.3-2.8-2.8-2.8h-8.5c-1.6,0-2.8,1.3-2.8,2.8v15.1h-7.1
			C78.7,20.9,77.3,23.3,78.4,25.2z"/>
	</g>
</g>
<g class="st0">
	<g class="st1">
		<g>
			<path class="st3" d="M167.7,10.3L18.4,88.5c-6.1,3.2-5.9,7.9,0.6,10.5l19.1,7.5c6.4,2.5,16.2,1.2,21.6-3.1l82.7-65.2
				c5.4-4.3,6-3.7,1.3,1.4l-65.4,70c-4.7,5-3.3,11.2,3.1,13.7l2.2,0.9c6.4,2.5,17,6.7,23.4,9.3l21.1,8.6c6.4,2.6,11.7,4.8,11.7,4.8
				c0,0,0,0.2,0.1,0.2c0,0,1.5-5.4,3.4-12.1l32.2-118.4C177.3,9.9,173.8,7,167.7,10.3z"/>
		</g>
		<g>
			<path class="st3" d="M79,131.3l-14.6-6c-6.4-2.6-9.5,0.5-6.8,6.9c0,0,13.6,32.7,13.2,33.9c-0.4,1.1,13-19.4,13-19.4
				C87.6,140.8,85.4,133.9,79,131.3z"/>
		</g>
	</g>
</g>
</svg>
