<?xml version="1.0" encoding="UTF-8"?>
<svg width="60px" height="40px" viewBox="0 0 60 40" version="1.1" xmlns="http://www.w3.org/2000/svg" xmlns:xlink="http://www.w3.org/1999/xlink" style="background: #F2F2F2;">
    <!-- Generator: Sketch 47.1 (45422) - http://www.bohemiancoding.com/sketch -->
    <title>Loader Graphic</title>
    <desc>Created with Sketch.</desc>
    <defs>
        <linearGradient x1="0%" y1="0%" x2="100%" y2="100%" id="linearGradient-1">
            <stop stop-color="#787673" stop-opacity="0.75" offset="0%"></stop>
            <stop stop-color="#787673" offset="100%"></stop>
        </linearGradient>
        <linearGradient x1="100%" y1="100%" x2="0%" y2="0%" id="linearGradient-2">
            <stop stop-color="#787673" stop-opacity="0.5" offset="0%"></stop>
            <stop stop-color="#787673" stop-opacity="0.75" offset="100%"></stop>
        </linearGradient>
        <linearGradient x1="16.3085938%" y1="50%" x2="100%" y2="100%" id="linearGradient-3">
            <stop stop-color="#787673" stop-opacity="0" offset="0%"></stop>
            <stop stop-color="#787673" stop-opacity="0.5" offset="100%"></stop>
        </linearGradient>
    </defs>
    <g id="Page-1" stroke="none" stroke-width="1" fill="none" fill-rule="evenodd">
        <g id="Loader-Graphic" stroke-width="2">
            <g id="Page-1" transform="translate(22.000000, 12.000000)">
                <path d="M8,16 C3.58170241,16 0,12.4182976 0,8" id="Stroke-3" stroke="#787673"></path>
                <path d="M16,16 C11.5817024,16 8,12.4182976 8,8" id="Stroke-3-Copy" stroke="url(#linearGradient-1)" transform="translate(12.000000, 12.000000) scale(-1, 1) translate(-12.000000, -12.000000) "></path>
                <path d="M16,8 C11.5817024,8 8,4.41829759 8,0" id="Stroke-3-Copy-2" stroke="url(#linearGradient-2)" transform="translate(12.000000, 4.000000) scale(-1, -1) translate(-12.000000, -4.000000) "></path>
                <path d="M8,8 C3.58170241,8 0,4.41829759 0,0" id="Stroke-3-Copy-3" stroke="url(#linearGradient-3)" transform="translate(4.000000, 4.000000) scale(1, -1) translate(-4.000000, -4.000000) "></path>
            </g>
        </g>
    </g>
</svg>