<svg xmlns="http://www.w3.org/2000/svg" viewBox="0 0 112 7">
    <path fill="#ffffff"  d="M100.79,8a9.91,9.91,0,0,1-6.47-2.28,7.36,7.36,0,0,0-9.46,0A9.91,9.91,0,0,1,78.39,8a9.94,9.94,0,0,1-6.48-2.28,7.35,7.35,0,0,0-9.45,0A9.91,9.91,0,0,1,56,8a9.88,9.88,0,0,1-6.47-2.28,7.36,7.36,0,0,0-9.46,0A9.85,9.85,0,0,1,33.6,8a9.92,9.92,0,0,1-6.48-2.28A7,7,0,0,0,22.4,4a7,7,0,0,0-4.73,1.72A9.91,9.91,0,0,1,11.2,8,9.88,9.88,0,0,1,4.73,5.72,7,7,0,0,0,0,4V1A9.88,9.88,0,0,1,6.47,3.28,7,7,0,0,0,11.2,5a7,7,0,0,0,4.73-1.72A9.88,9.88,0,0,1,22.4,1a9.91,9.91,0,0,1,6.47,2.28A7,7,0,0,0,33.6,5a7,7,0,0,0,4.72-1.72,10.32,10.32,0,0,1,12.94,0A7,7,0,0,0,56,5a7,7,0,0,0,4.72-1.72,10.33,10.33,0,0,1,12.95,0A7,7,0,0,0,78.39,5a7,7,0,0,0,4.73-1.72,10.32,10.32,0,0,1,12.94,0A7,7,0,0,0,100.79,5a7.05,7.05,0,0,0,4.74-1.72A9.88,9.88,0,0,1,112,1V4a7,7,0,0,0-4.73,1.72A9.92,9.92,0,0,1,100.79,8Z" transform="translate(0 -1)"/>
</svg>
